<svg width="186" height="20" viewBox="0 0 186 20" fill="none" xmlns="http://www.w3.org/2000/svg">
<g clip-path="url(#clip0)">
<path d="M24.376 9.688C25.304 10.12 26.024 10.688 26.536 11.392C27.064 12.08 27.328 12.88 27.328 13.792C27.328 15.584 26.736 16.904 25.552 17.752C24.384 18.584 22.92 19 21.16 19H15.28V1.336H20.464C22.336 1.336 23.808 1.72 24.88 2.488C25.952 3.24 26.488 4.336 26.488 5.776C26.488 6.656 26.304 7.432 25.936 8.104C25.568 8.76 25.048 9.288 24.376 9.688ZM18.76 8.56H20.872C21.512 8.56 22.008 8.368 22.36 7.984C22.712 7.584 22.888 7.096 22.888 6.52C22.888 5.928 22.688 5.48 22.288 5.176C21.888 4.856 21.336 4.696 20.632 4.696H18.76V8.56ZM20.992 15.76C21.808 15.76 22.464 15.6 22.96 15.28C23.472 14.944 23.728 14.448 23.728 13.792C23.728 12.544 22.736 11.92 20.752 11.92H18.76V15.76H20.992ZM48.0751 19H44.5951V11.824H36.6991V19H33.2191V1.336H36.6991V8.464H44.5951V1.336H48.0751V19ZM64.5533 19L60.8333 13.384H58.5053V19H55.0253V1.336H60.3773C62.5693 1.336 64.2653 1.872 65.4653 2.944C66.6813 4 67.2893 5.448 67.2893 7.288C67.2893 8.376 67.0573 9.4 66.5933 10.36C66.1453 11.304 65.4493 12.048 64.5053 12.592L68.6093 19H64.5533ZM58.5053 10.024H60.9773C61.9213 10.024 62.6093 9.752 63.0413 9.208C63.4733 8.648 63.6893 8.048 63.6893 7.408C63.6893 6.768 63.5053 6.16 63.1373 5.584C62.7693 4.992 62.0573 4.696 61.0013 4.696H58.5053V10.024ZM72.1891 10.192C72.1891 8.592 72.5891 7.096 73.3891 5.704C74.2051 4.312 75.3011 3.208 76.6771 2.392C78.0691 1.56 79.5731 1.144 81.1891 1.144C82.8051 1.144 84.3011 1.56 85.6771 2.392C87.0691 3.208 88.1731 4.312 88.9891 5.704C89.8211 7.096 90.2371 8.592 90.2371 10.192C90.2371 11.824 89.8211 13.328 88.9891 14.704C88.1731 16.08 87.0691 17.176 85.6771 17.992C84.3011 18.792 82.8051 19.192 81.1891 19.192C79.5571 19.192 78.0531 18.792 76.6771 17.992C75.3011 17.176 74.2051 16.08 73.3891 14.704C72.5891 13.328 72.1891 11.824 72.1891 10.192ZM75.7891 10.192C75.7891 11.216 76.0291 12.16 76.5091 13.024C77.0051 13.888 77.6691 14.576 78.5011 15.088C79.3491 15.584 80.2851 15.832 81.3091 15.832C82.3011 15.832 83.2051 15.584 84.0211 15.088C84.8371 14.576 85.4771 13.896 85.9411 13.048C86.4051 12.184 86.6371 11.232 86.6371 10.192C86.6371 9.136 86.3971 8.176 85.9171 7.312C85.4371 6.448 84.7811 5.768 83.9491 5.272C83.1331 4.76 82.2211 4.504 81.2131 4.504C80.2051 4.504 79.2851 4.76 78.4531 5.272C77.6371 5.768 76.9891 6.448 76.5091 7.312C76.0291 8.176 75.7891 9.136 75.7891 10.192ZM114.299 0.615999V19H110.819V10.576L105.059 18.76H105.011L99.4666 11.104V19H96.1066V0.615999H96.1306L105.083 13.312L114.251 0.615999H114.299ZM130 15.544H124.144L122.704 19H119.272L127.24 0.639999H127.432L135.4 19H131.368L130 15.544ZM128.848 12.616L127.144 8.32L125.368 12.616H128.848ZM138.1 10.192C138.1 8.592 138.5 7.096 139.3 5.704C140.116 4.312 141.212 3.208 142.588 2.392C143.98 1.56 145.484 1.144 147.1 1.144C148.716 1.144 150.212 1.56 151.588 2.392C152.98 3.208 154.084 4.312 154.9 5.704C155.732 7.096 156.148 8.592 156.148 10.192C156.148 11.824 155.732 13.328 154.9 14.704C154.084 16.08 152.98 17.176 151.588 17.992C150.212 18.792 148.716 19.192 147.1 19.192C145.468 19.192 143.964 18.792 142.588 17.992C141.212 17.176 140.116 16.08 139.3 14.704C138.5 13.328 138.1 11.824 138.1 10.192ZM141.7 10.192C141.7 11.216 141.94 12.16 142.42 13.024C142.916 13.888 143.58 14.576 144.412 15.088C145.26 15.584 146.196 15.832 147.22 15.832C148.212 15.832 149.116 15.584 149.932 15.088C150.748 14.576 151.388 13.896 151.852 13.048C152.316 12.184 152.548 11.232 152.548 10.192C152.548 9.136 152.308 8.176 151.828 7.312C151.348 6.448 150.692 5.768 149.86 5.272C149.044 4.76 148.132 4.504 147.124 4.504C146.116 4.504 145.196 4.76 144.364 5.272C143.548 5.768 142.9 6.448 142.42 7.312C141.94 8.176 141.7 9.136 141.7 10.192ZM177.93 1.336V19.72H177.834L165.474 8.56L165.546 19H162.018V0.639999H162.162L174.498 11.968L174.426 1.336H177.93Z" fill="white"/>
</g>
<defs>
<clipPath id="clip0">
<rect width="186" height="20" fill="white"/>
</clipPath>
</defs>
</svg>
